<?xml version="1.0" encoding="UTF-8" standalone="no"?>
<svg width="50px" height="56px" viewBox="0 0 50 56" version="1.1" xmlns="http://www.w3.org/2000/svg">
  <g id="Page-1" stroke="none" stroke-width="1" fill="none" fill-rule="evenodd">
    <g id="icon-history" transform="translate(-29.000000, -27.000000)">
      <g id="Page-1">
        <g id="icon-history">
          <path
            d="M74.9,39.3 L74.9,72.3 C74.9,76.1 71.8,79.2 68,79.2 L41.9,79.2 C42.6,81.4 44.6,83 47,83 L73.3,83 C76.3,83 78.7,80.6 78.7,77.6 L78.7,44.4 C78.7,42 77.1,40 74.9,39.3 L74.9,39.3 L74.9,39.3 Z"
            id="XMLID_3_" fill="#FFFFFF"/>
          <path
            d="M73.4,72.3 L73.4,39.1 C73.4,36.3 71.2,34 68.5,33.8 L68.5,65.9 C68.5,69.7 65.4,72.8 61.6,72.8 L36.4,72.8 C36.7,75.5 39,77.7 41.7,77.7 L68,77.7 C71,77.7 73.4,75.2 73.4,72.3 L73.4,72.3 L73.4,72.3 Z"
            id="XMLID_32_" fill="#FFFFFF"/>
          <path
            d="M67,65.9 L67,32.7 C67,29.7 64.6,27.3 61.6,27.3 L35.3,27.3 C32.3,27.3 29.9,29.7 29.9,32.7 L29.9,65.9 C29.9,68.9 32.3,71.3 35.3,71.3 L61.6,71.3 C64.6,71.3 67,68.9 67,65.9 L67,65.9 L67,65.9 Z M48.4,62.4 C41,62.4 35,56.4 35,49 C35,41.6 41,35.6 48.4,35.6 C55.8,35.6 61.8,41.6 61.8,49 C61.8,56.4 55.8,62.4 48.4,62.4 L48.4,62.4 L48.4,62.4 Z"
            id="XMLID_37_" fill="#FFFFFF"/>
          <path d="M48.3604377,41 L48.3604377,49.3650877 L52.3604377,53.75" id="Path-8" stroke="#FFFFFF"
                stroke-width="4"/>
          <circle id="Oval-1" fill="#FFFFFF" cx="48.3500004" cy="41" r="2"/>
          <circle id="Oval-1-Copy" fill="#FFFFFF" cx="52.6000004" cy="54" r="2"/>
        </g>
      </g>
    </g>
  </g>
</svg>
