<?xml version="1.0" encoding="UTF-8" standalone="no"?>
<svg
   xmlns:dc="http://purl.org/dc/elements/1.1/"
   xmlns:cc="http://creativecommons.org/ns#"
   xmlns:rdf="http://www.w3.org/1999/02/22-rdf-syntax-ns#"
   xmlns:svg="http://www.w3.org/2000/svg"
   xmlns="http://www.w3.org/2000/svg"
   xml:space="preserve"
   style="enable-background:new -278 401.3 37.4 38.6;"
   viewBox="-278 401.3 37.4 38.6"
   y="0px"
   x="0px"
   id="Calque_1"
   version="1.1"><metadata
     id="metadata20"><rdf:RDF><cc:Work
         rdf:about=""><dc:format>image/svg+xml</dc:format><dc:type
           rdf:resource="http://purl.org/dc/dcmitype/StillImage" /></cc:Work></rdf:RDF></metadata><defs
     id="defs18" /><style
     id="style3"
     type="text/css">
	.st0{fill:#FFFFFF;}
</style><g
     id="XMLID_372_"><polygon
       points="-249.2,412.5 -257.3,426 -257.3,426 -249.2,422.2  "
       class="st0"
       id="XMLID_378_" /><polygon
       points="-249.2,438.6 -249.2,431.9 -257.2,427.2  "
       class="st0"
       id="XMLID_377_" /><polygon
       points="-257.3,426 -249.2,430.9 -249.2,422.2  "
       class="st0"
       id="XMLID_376_" /><polygon
       points="-249.2,412.5 -249.2,422.2 -241,426 -241,426  "
       class="st0"
       id="XMLID_375_" /><polygon
       points="-249.2,432 -249.2,431.9 -249.2,438.6 -249.2,438.6 -241.1,427.2  "
       class="st0"
       id="XMLID_374_" /><polygon
       points="-249.2,430.9 -241,426 -249.2,422.2  "
       class="st0"
       id="XMLID_373_" /></g><g
     id="XMLID_367_"><path
       d="M-270.1,410.3c0,1.4,0,2.8,0,4.3c0.4,0,0.7,0,1,0c1,0,2,0,2.9-0.5c0.7-0.3,1.1-0.8,1.2-1.6   c0-0.8-0.3-1.4-1-1.8c-0.4-0.2-0.8-0.3-1.1-0.4c-0.9-0.2-1.8-0.1-2.7-0.1C-269.9,410.2-270,410.2-270.1,410.3 M-270.1,421.8   c0.1,0,0.3,0,0.4,0c1,0,2,0,3-0.2c0.7-0.1,1.3-0.3,1.8-0.7c1.2-0.8,1.1-2.5,0.1-3.2c-0.4-0.3-0.9-0.4-1.3-0.6   c-0.9-0.2-1.7-0.2-2.6-0.2c-0.4,0-0.9,0-1.4,0C-270.1,418.6-270.1,420.1-270.1,421.8 M-266.1,424.6c0,1.2,0,2.4,0,3.7   c-0.8,0-1.5,0-2.3,0c0-0.2,0-0.3,0-0.4c0-0.9,0-1.9,0-2.8c0-0.5,0-0.5-0.5-0.5c-0.3,0-0.6,0-0.9,0c-0.3,0-0.3,0-0.3,0.3   c0,0.9,0,1.9,0,2.8c0,0.1,0,0.2,0,0.3c0,0.2-0.1,0.3-0.3,0.3c-0.6,0-1.3,0-1.9,0c0,0,0,0-0.1-0.1c0-0.1,0-0.3,0-0.4   c0-1,0-1.9,0-2.9c0-0.3,0-0.3-0.3-0.3c-1.2,0-2.5,0-3.8,0c-0.1,0-0.2,0-0.3,0c-0.1-0.3,0.2-2.3,0.4-2.8c0.4,0,0.8,0,1.2,0   c0.2,0,0.4,0,0.6,0c0.5-0.1,0.7-0.3,0.7-0.8c0-0.2,0-0.4,0-0.6c0-3,0-6.1,0-9.1c0-0.8-0.3-1.2-1.1-1.2c-0.5,0-1,0-1.5,0   c-0.1,0-0.1,0-0.2,0c-0.1-0.4,0-0.8-0.1-1.2c0-0.4,0-0.8,0-1.3c1.5,0,3,0,4.5,0c0-1.3,0-2.4,0-3.7c0.8,0,1.6,0,2.4,0   c0,1.2,0,2.4,0,3.6c0.3,0,0.5,0,0.8,0c0.3,0,0.5,0,0.8,0c0.1-1.2,0-2.3,0-3.6c0.8-0.1,1.5,0,2.3,0c0,0.2,0,0.3,0,0.4   c0,0.9,0,1.9,0,2.8c0,0.4,0,0.4,0.5,0.5c1,0.1,1.9,0.3,2.8,0.7c1.1,0.5,1.8,1.3,2.1,2.4c0.2,1.1,0.2,2.2-0.4,3.2   c-0.3,0.5-0.7,0.8-1.3,1.2c0.2,0.1,0.4,0.1,0.5,0.2c0.9,0.3,1.7,0.8,2.2,1.7c0.3,0.6,0.5,1.3,0.5,2c0,0.9-0.1,1.8-0.5,2.7   c-0.5,1-1.3,1.6-2.3,2.1c-1.1,0.5-2.3,0.7-3.5,0.8C-265.8,424.5-265.9,424.6-266.1,424.6"
       class="st0"
       id="XMLID_368_" /></g><path
     d="M-266.6,429.4l4.5-1.8c0,0-0.2,0.5-0.2,0.6c0.6,0.4,2.4,1.4,5,0.8c1.5,2.2,3.7,5.3,3.7,5.3  s-4.7,2.7-11.3-0.5c-0.1,0.2-0.3,0.6-0.3,0.6L-266.6,429.4z"
     class="st0"
     id="XMLID_381_" /><path
     d="M-260.7,408.7c0,0,3.7-0.9,8.2,1.3c0.2-0.3,0.3-0.6,0.3-0.6l1.4,4.8l-4.6,2.2  c0,0,0.1-0.4,0.3-0.7c-0.6-0.4-2.3-1.3-5.6-0.7C-259.1,413.2-259.2,410.7-260.7,408.7z"
     class="st0"
     id="XMLID_379_" /></svg>