<?xml version="1.0" encoding="UTF-8" standalone="no"?>
<svg width="56px" height="56px" viewBox="0 0 56 56" version="1.1" xmlns="http://www.w3.org/2000/svg" xmlns:xlink="http://www.w3.org/1999/xlink" xmlns:sketch="http://www.bohemiancoding.com/sketch/ns">
    <!-- Generator: Sketch 3.3.3 (12072) - http://www.bohemiancoding.com/sketch -->
    <title>icon-my-account</title>
    <desc>Created with Sketch.</desc>
    <defs></defs>
    <g id="Page-1" stroke="none" stroke-width="1" fill="none" fill-rule="evenodd" sketch:type="MSPage">
        <g id="icon-my-account" sketch:type="MSLayerGroup" fill="#FFFFFF">
            <path d="M28,0.7 C12.8,0.7 0.5,13 0.5,28.2 C0.5,43.4 12.8,55.7 28,55.7 C43.2,55.7 55.5,43.4 55.5,28.2 C55.5,13 43.2,0.7 28,0.7 L28,0.7 Z M28,11.8 C33.4,11.8 37.7,16.1 37.7,21.5 C37.7,26.9 33.4,31.2 28,31.2 C22.6,31.2 18.3,26.9 18.3,21.5 C18.3,16.2 22.7,11.8 28,11.8 L28,11.8 Z M28,49.2 C20.7,49.2 14.3,45.3 10.8,39.4 C13.5,36.4 20.1,34.2 27.8,34.2 C35.8,34.2 42.5,36.5 45.1,39.7 C41.5,45.4 35.2,49.2 28,49.2 L28,49.2 Z" id="XMLID_24_" sketch:type="MSShapeGroup"></path>
        </g>
    </g>
</svg>